<svg width="13" height="13" viewBox="0 0 13 13" fill="none" xmlns="http://www.w3.org/2000/svg">
<g id="at">
<path id="Vector" d="M8.86438 6.57758C8.86438 7.68215 7.96895 8.57758 6.86438 8.57758C5.75981 8.57758 4.86438 7.68215 4.86438 6.57758C4.86438 5.47301 5.75981 4.57758 6.86438 4.57758C7.96895 4.57758 8.86438 5.47301 8.86438 6.57758ZM8.86438 6.57758L8.86438 7.32756C8.86438 7.65908 8.99607 7.97702 9.23049 8.21144C9.46492 8.44586 9.78286 8.57756 10.1144 8.57756C10.4459 8.57756 10.7638 8.44586 10.9983 8.21144C11.2327 7.97702 11.3644 7.65908 11.3644 7.32756V6.57756C11.3656 5.61061 11.0554 4.66898 10.4796 3.89216C9.90379 3.11533 9.09309 2.54464 8.16757 2.26461C7.24206 1.98458 6.25096 2.01012 5.3411 2.33744C4.43123 2.66476 3.651 3.27645 3.11598 4.0819C2.58096 4.88735 2.31962 5.84371 2.37066 6.80931C2.4217 7.77491 2.78241 8.69839 3.39936 9.44294C4.01631 10.1875 4.85667 10.7135 5.79598 10.9431C6.73528 11.1727 7.72354 11.0936 8.61438 10.7176" stroke="black" stroke-linecap="round" stroke-linejoin="round"/>
</g>
</svg>
