<svg width="17" height="17" viewBox="0 0 17 17" fill="none" xmlns="http://www.w3.org/2000/svg">
<path d="M4.5 13.491C5.60457 13.491 6.5 12.5956 6.5 11.491C6.5 10.3864 5.60457 9.49101 4.5 9.49101C3.39543 9.49101 2.5 10.3864 2.5 11.491C2.5 12.5956 3.39543 13.491 4.5 13.491Z" stroke="white" stroke-width="1.5" stroke-linecap="round" stroke-linejoin="round"/>
<path d="M11.1667 14.8243C11.903 14.8243 12.5 14.2274 12.5 13.491C12.5 12.7546 11.903 12.1577 11.1667 12.1577C10.4303 12.1577 9.83333 12.7546 9.83333 13.491C9.83333 14.2274 10.4303 14.8243 11.1667 14.8243Z" stroke="white" stroke-width="1.5" stroke-linecap="round" stroke-linejoin="round"/>
<path d="M10.1667 8.82434C11.8235 8.82434 13.1667 7.4812 13.1667 5.82434C13.1667 4.16749 11.8235 2.82434 10.1667 2.82434C8.50981 2.82434 7.16667 4.16749 7.16667 5.82434C7.16667 7.4812 8.50981 8.82434 10.1667 8.82434Z" stroke="white" stroke-width="1.5" stroke-linecap="round" stroke-linejoin="round"/>
</svg>
