<svg width="17" height="17" viewBox="0 0 17 17" fill="none" xmlns="http://www.w3.org/2000/svg">
<path fill-rule="evenodd" clip-rule="evenodd" d="M8.84363 16.5776C4.42535 16.5776 0.843628 12.9959 0.843628 8.57764C0.843628 4.15936 4.42535 0.577637 8.84363 0.577637C13.2619 0.577637 16.8436 4.15936 16.8436 8.57764C16.8436 12.9959 13.2619 16.5776 8.84363 16.5776ZM10.2578 8.57764L12.5507 10.8705C12.9413 11.2611 12.9413 11.8942 12.5507 12.2847C12.1602 12.6753 11.527 12.6753 11.1365 12.2847L8.84363 9.99185L6.55073 12.2847C6.16021 12.6753 5.52705 12.6753 5.13652 12.2847C4.746 11.8942 4.746 11.2611 5.13652 10.8705L7.42941 8.57764L5.13652 6.28474C4.746 5.89422 4.746 5.26105 5.13652 4.87053C5.52705 4.48001 6.16021 4.48001 6.55073 4.87053L8.84363 7.16342L11.1365 4.87053C11.527 4.48001 12.1602 4.48001 12.5507 4.87053C12.9413 5.26105 12.9413 5.89422 12.5507 6.28474L10.2578 8.57764Z" fill="#95A4AC"/>
</svg>
