<svg width="16" height="17" viewBox="0 0 16 17" fill="none" xmlns="http://www.w3.org/2000/svg">
<path fill-rule="evenodd" clip-rule="evenodd" d="M16 8.57764C16 12.9959 12.4183 16.5776 8 16.5776C3.58172 16.5776 0 12.9959 0 8.57764C0 4.15936 3.58172 0.577637 8 0.577637C12.4183 0.577637 16 4.15936 16 8.57764ZM12.4975 5.57284C12.107 5.18232 11.4738 5.18232 11.0833 5.57284L7 9.66342L5.20711 7.87053C4.81658 7.48001 4.18342 7.48001 3.79289 7.87053C3.40237 8.26105 3.40237 8.89422 3.79289 9.28474L6.29289 11.7847C6.68342 12.1753 7.31658 12.1753 7.70711 11.7847L12.4975 6.98706C12.888 6.59653 12.888 5.96337 12.4975 5.57284Z" fill="#95A4AC"/>
</svg>
