<svg xmlns="http://www.w3.org/2000/svg" xmlns:xlink="http://www.w3.org/1999/xlink" width="500" zoomAndPan="magnify" viewBox="0 0 375 225" height="300" preserveAspectRatio="xMidYMid meet" version="1.0"><defs><g/><clipPath id="88774b74b7"><path d="M 40 121 L 143.921875 121 L 143.921875 225 L 40 225 Z M 40 121 " clip-rule="nonzero"/></clipPath><clipPath id="918115ebf0"><path d="M 8.921875 58 L 72 58 L 72 122 L 8.921875 122 Z M 8.921875 58 " clip-rule="nonzero"/></clipPath><clipPath id="b8e37f1382"><path d="M 85 0.03125 L 109 0.03125 L 109 24 L 85 24 Z M 85 0.03125 " clip-rule="nonzero"/></clipPath><clipPath id="c1ccaecdad"><path d="M 111 24 L 143.921875 24 L 143.921875 57 L 111 57 Z M 111 24 " clip-rule="nonzero"/></clipPath></defs><g clip-path="url(#88774b74b7)"><path fill="#ffffff" d="M 92.105469 121.570312 C 120.722656 121.570312 143.921875 144.71875 143.921875 173.273438 C 143.921875 201.832031 120.722656 224.980469 92.105469 224.980469 C 63.492188 224.980469 40.292969 201.832031 40.292969 173.273438 C 40.292969 144.71875 63.492188 121.570312 92.105469 121.570312 " fill-opacity="1" fill-rule="nonzero"/></g><g clip-path="url(#918115ebf0)"><path fill="#ffffff" d="M 40.292969 58.964844 C 57.617188 58.964844 71.664062 72.976562 71.664062 90.265625 C 71.664062 107.554688 57.617188 121.570312 40.292969 121.570312 C 22.96875 121.570312 8.921875 107.554688 8.921875 90.265625 C 8.921875 72.976562 22.96875 58.964844 40.292969 58.964844 " fill-opacity="1" fill-rule="nonzero"/></g><g clip-path="url(#b8e37f1382)"><path fill="#ffffff" d="M 96.84375 0.078125 C 103.214844 0.078125 108.378906 5.234375 108.378906 11.589844 C 108.378906 17.945312 103.214844 23.101562 96.84375 23.101562 C 90.476562 23.101562 85.308594 17.945312 85.308594 11.589844 C 85.308594 5.234375 90.476562 0.078125 96.84375 0.078125 " fill-opacity="1" fill-rule="nonzero"/></g><g clip-path="url(#c1ccaecdad)"><path fill="#ffffff" d="M 127.714844 24.199219 C 136.664062 24.199219 143.917969 31.441406 143.917969 40.371094 C 143.917969 49.304688 136.664062 56.546875 127.714844 56.546875 C 118.765625 56.546875 111.507812 49.304688 111.507812 40.371094 C 111.507812 31.441406 118.765625 24.199219 127.714844 24.199219 " fill-opacity="1" fill-rule="nonzero"/></g><path fill="#ffffff" d="M 101.050781 126.515625 C 111.878906 126.515625 120.65625 135.269531 120.65625 146.074219 C 120.65625 156.882812 111.878906 165.640625 101.050781 165.640625 C 90.222656 165.640625 81.445312 156.882812 81.445312 146.074219 C 81.445312 135.269531 90.222656 126.515625 101.050781 126.515625 " fill-opacity="1" fill-rule="nonzero"/><path fill="#ffffff" d="M 48.898438 65.183594 C 55.132812 65.183594 60.179688 70.222656 60.179688 76.449219 C 60.179688 82.664062 55.132812 87.707031 48.898438 87.707031 C 42.667969 87.707031 37.613281 82.664062 37.613281 76.449219 C 37.613281 70.222656 42.667969 65.183594 48.898438 65.183594 " fill-opacity="1" fill-rule="nonzero"/><g fill="#ffffff" fill-opacity="1"><g transform="translate(81.814288, 111.462804)"><g><path d="M 15.25 0.890625 C 19.644531 0.765625 23.242188 -0.0507812 26.046875 -1.5625 C 28.859375 -3.070312 30.929688 -5.023438 32.265625 -7.421875 C 33.597656 -9.816406 34.265625 -12.289062 34.265625 -14.84375 C 34.265625 -17.78125 33.441406 -20.566406 31.796875 -23.203125 C 29.796875 -26.335938 26.734375 -28.4375 22.609375 -29.5 C 21.148438 -29.851562 19.789062 -30.378906 18.53125 -31.078125 C 17.28125 -31.785156 16.597656 -32.96875 16.484375 -34.625 C 16.523438 -35.007812 16.679688 -35.359375 16.953125 -35.671875 C 17.234375 -35.992188 17.507812 -36.15625 17.78125 -36.15625 C 18.132812 -36.070312 18.410156 -35.753906 18.609375 -35.203125 C 18.804688 -34.660156 19.296875 -33.835938 20.078125 -32.734375 C 21.140625 -31.316406 22.609375 -30.609375 24.484375 -30.609375 C 25.546875 -30.609375 26.554688 -30.863281 27.515625 -31.375 C 28.484375 -31.882812 29.222656 -32.617188 29.734375 -33.578125 C 30.242188 -34.546875 30.5 -35.5625 30.5 -36.625 C 30.5 -38.226562 30.015625 -39.804688 29.046875 -41.359375 C 28.085938 -42.910156 26.804688 -44.21875 25.203125 -45.28125 C 22.722656 -46.769531 20.03125 -47.515625 17.125 -47.515625 C 13.789062 -47.515625 10.601562 -46.507812 7.5625 -44.5 C 4.519531 -42.5 2.410156 -39.441406 1.234375 -35.328125 C 0.960938 -34.222656 0.828125 -33.203125 0.828125 -32.265625 C 0.828125 -27.359375 4.203125 -23.21875 10.953125 -19.84375 C 11.691406 -19.40625 12.203125 -19.09375 12.484375 -18.90625 C 14.910156 -17.25 16.125 -15.875 16.125 -14.78125 C 16.125 -14.382812 15.976562 -14.078125 15.6875 -13.859375 C 15.394531 -13.648438 15.050781 -13.546875 14.65625 -13.546875 C 14.070312 -13.546875 13.539062 -13.800781 13.0625 -14.3125 C 10.550781 -16.976562 8.238281 -18.3125 6.125 -18.3125 C 4.507812 -18.3125 3.144531 -17.710938 2.03125 -16.515625 C 0.914062 -15.316406 0.359375 -13.753906 0.359375 -11.828125 C 0.359375 -8.765625 1.890625 -5.664062 4.953125 -2.53125 C 6.753906 -0.882812 9.421875 0.171875 12.953125 0.640625 C 14.242188 0.804688 15.007812 0.890625 15.25 0.890625 Z M 15.25 0.890625 "/></g></g></g><g fill="#ffffff" fill-opacity="1"><g transform="translate(117.013259, 111.462804)"><g><path d="M 17.953125 0.9375 C 20.703125 0.9375 23.363281 0.28125 25.9375 -1.03125 C 28.507812 -2.34375 30.640625 -4.285156 32.328125 -6.859375 C 34.015625 -9.429688 34.859375 -11.914062 34.859375 -14.3125 C 34.859375 -17.019531 33.660156 -18.960938 31.265625 -20.140625 C 30.128906 -20.609375 29.144531 -20.84375 28.3125 -20.84375 C 27.101562 -20.84375 26.101562 -20.507812 25.3125 -19.84375 C 24.53125 -19.175781 23.863281 -18.46875 23.3125 -17.71875 C 22.882812 -17.207031 22.484375 -16.765625 22.109375 -16.390625 C 21.734375 -16.023438 21.332031 -15.820312 20.90625 -15.78125 C 20.269531 -15.78125 19.488281 -16.015625 18.5625 -16.484375 C 17.644531 -16.953125 16.84375 -17.707031 16.15625 -18.75 C 15.46875 -19.789062 15.125 -21.175781 15.125 -22.90625 C 15.164062 -23.84375 15.363281 -24.847656 15.71875 -25.921875 C 16.070312 -27.003906 16.570312 -27.945312 17.21875 -28.75 C 17.863281 -29.5625 18.597656 -29.96875 19.421875 -29.96875 C 19.929688 -29.96875 20.441406 -29.789062 20.953125 -29.4375 C 22.054688 -28.8125 23.175781 -28.5 24.3125 -28.5 C 25.175781 -28.5 26.238281 -28.691406 27.5 -29.078125 C 28.945312 -29.585938 30.023438 -30.410156 30.734375 -31.546875 C 31.441406 -32.691406 31.796875 -33.953125 31.796875 -35.328125 C 31.796875 -36.859375 31.34375 -38.347656 30.4375 -39.796875 C 28.832031 -42.304688 26.910156 -44.171875 24.671875 -45.390625 C 22.429688 -46.609375 20.113281 -47.21875 17.71875 -47.21875 C 15.125 -47.21875 12.617188 -46.519531 10.203125 -45.125 C 7.796875 -43.726562 5.769531 -41.640625 4.125 -38.859375 C 1.21875 -33.867188 -0.234375 -28.375 -0.234375 -22.375 C -0.234375 -17.9375 0.585938 -13.675781 2.234375 -9.59375 C 3.765625 -6.101562 5.960938 -3.472656 8.828125 -1.703125 C 11.691406 0.0546875 14.734375 0.9375 17.953125 0.9375 Z M 17.953125 0.9375 "/></g></g></g><g fill="#ffffff" fill-opacity="1"><g transform="translate(152.56541, 111.462804)"><g><path d="M 9.015625 0.46875 C 10.347656 0.46875 11.609375 0.109375 12.796875 -0.609375 C 13.992188 -1.335938 14.945312 -2.445312 15.65625 -3.9375 C 16.289062 -5.75 16.609375 -7.421875 16.609375 -8.953125 L 16.609375 -9.65625 C 16.609375 -10.238281 16.625 -10.726562 16.65625 -11.125 L 16.953125 -11.25 C 17.390625 -10.5 18.546875 -8.945312 20.421875 -6.59375 C 22.429688 -4.039062 23.945312 -2.3125 24.96875 -1.40625 C 26.5 -0.269531 28.007812 0.296875 29.5 0.296875 C 31.226562 0.296875 32.75 -0.320312 34.0625 -1.5625 C 35.375 -2.800781 36.03125 -4.242188 36.03125 -5.890625 C 36.03125 -6.867188 35.734375 -7.890625 35.140625 -8.953125 C 33.140625 -11.773438 31.628906 -13.796875 30.609375 -15.015625 C 29.472656 -16.390625 28.90625 -17.289062 28.90625 -17.71875 C 28.90625 -18 29.269531 -18.429688 30 -19.015625 C 30.726562 -19.609375 31.738281 -20.648438 33.03125 -22.140625 C 35.144531 -24.921875 36.203125 -28 36.203125 -31.375 C 36.203125 -34.875 35.035156 -38.179688 32.703125 -41.296875 C 30.367188 -44.421875 26.804688 -46.472656 22.015625 -47.453125 C 19.703125 -47.804688 17.390625 -47.984375 15.078125 -47.984375 C 13.660156 -47.984375 12.242188 -47.941406 10.828125 -47.859375 C 9.179688 -47.785156 7.679688 -47.414062 6.328125 -46.75 C 4.972656 -46.082031 3.875 -45.128906 3.03125 -43.890625 C 2.1875 -42.648438 1.765625 -41.085938 1.765625 -39.203125 L 1.65625 -19.78125 C 1.65625 -18.5625 1.660156 -17.6875 1.671875 -17.15625 C 1.691406 -16.632812 1.703125 -16.203125 1.703125 -15.859375 C 1.703125 -15.523438 1.710938 -15.09375 1.734375 -14.5625 C 1.753906 -14.039062 1.765625 -11.640625 1.765625 -7.359375 C 1.765625 -7.085938 1.820312 -6.722656 1.9375 -6.265625 C 2.0625 -5.816406 2.160156 -5.414062 2.234375 -5.0625 C 2.703125 -3.175781 3.582031 -1.78125 4.875 -0.875 C 6.175781 0.0195312 7.554688 0.46875 9.015625 0.46875 Z M 18.078125 -25.734375 C 17.679688 -25.804688 17.484375 -26.765625 17.484375 -28.609375 C 17.484375 -31.441406 17.703125 -32.859375 18.140625 -32.859375 L 18.25 -32.859375 C 18.800781 -32.859375 19.289062 -32.4375 19.71875 -31.59375 C 20.15625 -30.75 20.375 -29.988281 20.375 -29.3125 C 20.375 -28.414062 20.164062 -27.613281 19.75 -26.90625 C 19.34375 -26.195312 18.785156 -25.804688 18.078125 -25.734375 Z M 18.078125 -25.734375 "/></g></g></g><g fill="#ffffff" fill-opacity="1"><g transform="translate(190.177699, 111.462804)"><g><path d="M 18.78125 1.125 C 22.394531 1.125 25.484375 0.15625 28.046875 -1.78125 C 30.617188 -3.726562 32.601562 -6.132812 34 -9 C 35.394531 -11.875 36.09375 -14.722656 36.09375 -17.546875 C 36.363281 -21.671875 36.5 -25.320312 36.5 -28.5 C 36.5 -30.894531 36.460938 -33.015625 36.390625 -34.859375 L 36.328125 -38.734375 C 36.328125 -40.617188 35.882812 -42.1875 35 -43.4375 C 34.113281 -44.695312 33.070312 -45.628906 31.875 -46.234375 C 30.675781 -46.847656 29.585938 -47.15625 28.609375 -47.15625 C 26.765625 -47.15625 25.125 -46.332031 23.6875 -44.6875 C 22.257812 -43.039062 21.488281 -41.132812 21.375 -38.96875 C 21.25 -34.769531 21.1875 -30.804688 21.1875 -27.078125 C 21.1875 -23.148438 21.109375 -20.507812 20.953125 -19.15625 C 20.796875 -17.800781 20.269531 -17.125 19.375 -17.125 C 18.507812 -17.125 17.96875 -17.742188 17.75 -18.984375 C 17.53125 -20.222656 17.421875 -21.742188 17.421875 -23.546875 L 17.421875 -27.5 L 17.375 -30.4375 L 17.421875 -34.328125 C 17.421875 -36.796875 17.1875 -38.929688 16.71875 -40.734375 C 16.519531 -41.210938 16.226562 -41.84375 15.84375 -42.625 C 14.3125 -45.570312 12.269531 -47.046875 9.71875 -47.046875 C 6.21875 -47.046875 3.84375 -45.613281 2.59375 -42.75 C 1.570312 -40.425781 1.0625 -35.945312 1.0625 -29.3125 C 1.0625 -25.707031 1.195312 -21.960938 1.46875 -18.078125 C 1.59375 -16.109375 1.992188 -14.015625 2.671875 -11.796875 C 3.359375 -9.585938 4.378906 -7.507812 5.734375 -5.5625 C 7.085938 -3.625 8.832031 -2.023438 10.96875 -0.765625 C 13.113281 0.492188 15.71875 1.125 18.78125 1.125 Z M 18.78125 1.125 "/></g></g></g><g fill="#ffffff" fill-opacity="1"><g transform="translate(229.202656, 111.462804)"><g><path d="M 18.546875 -0.125 C 20.984375 -0.125 23.0625 -0.316406 24.78125 -0.703125 C 28.394531 -1.679688 31.101562 -3.523438 32.90625 -6.234375 C 34.71875 -8.941406 35.625 -11.867188 35.625 -15.015625 C 35.625 -17.367188 35.117188 -19.65625 34.109375 -21.875 C 33.109375 -24.09375 31.609375 -25.96875 29.609375 -27.5 C 29.296875 -27.726562 29.0625 -27.921875 28.90625 -28.078125 C 28.75 -28.234375 28.671875 -28.410156 28.671875 -28.609375 C 28.671875 -28.847656 28.789062 -29.203125 29.03125 -29.671875 C 29.8125 -31.515625 30.203125 -33.335938 30.203125 -35.140625 C 30.203125 -37.929688 29.347656 -40.425781 27.640625 -42.625 C 25.929688 -44.820312 23.546875 -46.351562 20.484375 -47.21875 C 18.953125 -47.613281 17.441406 -47.8125 15.953125 -47.8125 C 14.929688 -47.8125 13.910156 -47.769531 12.890625 -47.6875 C 11.867188 -47.613281 10.789062 -47.554688 9.65625 -47.515625 C 7.726562 -47.429688 6.054688 -46.925781 4.640625 -46 C 3.234375 -45.082031 2.351562 -43.644531 2 -41.6875 C 1.84375 -40.707031 1.742188 -35.878906 1.703125 -27.203125 L 1.65625 -23.25 L 1.703125 -6.65625 C 1.703125 -4.414062 2.289062 -2.773438 3.46875 -1.734375 C 4.644531 -0.691406 5.941406 -0.171875 7.359375 -0.171875 Z M 17.015625 -12.71875 C 16.816406 -12.71875 16.71875 -12.832031 16.71875 -13.0625 L 16.65625 -18.375 C 16.65625 -18.882812 16.675781 -19.273438 16.71875 -19.546875 C 16.757812 -19.816406 16.894531 -19.953125 17.125 -19.953125 C 17.875 -19.921875 18.484375 -19.566406 18.953125 -18.890625 C 19.429688 -18.222656 19.671875 -17.421875 19.671875 -16.484375 C 19.671875 -15.734375 19.484375 -15.015625 19.109375 -14.328125 C 18.734375 -13.648438 18.113281 -13.132812 17.25 -12.78125 Z M 16.78125 -30.671875 L 16.78125 -36.03125 C 18.03125 -36.03125 18.65625 -35.128906 18.65625 -33.328125 C 18.65625 -32.691406 18.535156 -32.085938 18.296875 -31.515625 C 18.066406 -30.953125 17.5625 -30.671875 16.78125 -30.671875 Z M 16.78125 -30.671875 "/></g></g></g><g fill="#ffffff" fill-opacity="1"><g transform="translate(265.637713, 111.462804)"><g><path d="M 18.546875 -0.125 C 20.984375 -0.125 23.0625 -0.316406 24.78125 -0.703125 C 28.394531 -1.679688 31.101562 -3.523438 32.90625 -6.234375 C 34.71875 -8.941406 35.625 -11.867188 35.625 -15.015625 C 35.625 -17.367188 35.117188 -19.65625 34.109375 -21.875 C 33.109375 -24.09375 31.609375 -25.96875 29.609375 -27.5 C 29.296875 -27.726562 29.0625 -27.921875 28.90625 -28.078125 C 28.75 -28.234375 28.671875 -28.410156 28.671875 -28.609375 C 28.671875 -28.847656 28.789062 -29.203125 29.03125 -29.671875 C 29.8125 -31.515625 30.203125 -33.335938 30.203125 -35.140625 C 30.203125 -37.929688 29.347656 -40.425781 27.640625 -42.625 C 25.929688 -44.820312 23.546875 -46.351562 20.484375 -47.21875 C 18.953125 -47.613281 17.441406 -47.8125 15.953125 -47.8125 C 14.929688 -47.8125 13.910156 -47.769531 12.890625 -47.6875 C 11.867188 -47.613281 10.789062 -47.554688 9.65625 -47.515625 C 7.726562 -47.429688 6.054688 -46.925781 4.640625 -46 C 3.234375 -45.082031 2.351562 -43.644531 2 -41.6875 C 1.84375 -40.707031 1.742188 -35.878906 1.703125 -27.203125 L 1.65625 -23.25 L 1.703125 -6.65625 C 1.703125 -4.414062 2.289062 -2.773438 3.46875 -1.734375 C 4.644531 -0.691406 5.941406 -0.171875 7.359375 -0.171875 Z M 17.015625 -12.71875 C 16.816406 -12.71875 16.71875 -12.832031 16.71875 -13.0625 L 16.65625 -18.375 C 16.65625 -18.882812 16.675781 -19.273438 16.71875 -19.546875 C 16.757812 -19.816406 16.894531 -19.953125 17.125 -19.953125 C 17.875 -19.921875 18.484375 -19.566406 18.953125 -18.890625 C 19.429688 -18.222656 19.671875 -17.421875 19.671875 -16.484375 C 19.671875 -15.734375 19.484375 -15.015625 19.109375 -14.328125 C 18.734375 -13.648438 18.113281 -13.132812 17.25 -12.78125 Z M 16.78125 -30.671875 L 16.78125 -36.03125 C 18.03125 -36.03125 18.65625 -35.128906 18.65625 -33.328125 C 18.65625 -32.691406 18.535156 -32.085938 18.296875 -31.515625 C 18.066406 -30.953125 17.5625 -30.671875 16.78125 -30.671875 Z M 16.78125 -30.671875 "/></g></g></g><g fill="#ffffff" fill-opacity="1"><g transform="translate(302.072771, 111.462804)"><g><path d="M 8.71875 0.53125 C 10.09375 0.53125 11.382812 0.265625 12.59375 -0.265625 C 13.8125 -0.796875 14.800781 -1.765625 15.5625 -3.171875 C 16.332031 -4.585938 16.71875 -6.59375 16.71875 -9.1875 C 16.875 -13.269531 16.953125 -17.742188 16.953125 -22.609375 C 16.953125 -31.359375 16.851562 -37.5625 16.65625 -41.21875 C 16.5 -43.09375 15.722656 -44.648438 14.328125 -45.890625 C 12.941406 -47.128906 11.226562 -47.75 9.1875 -47.75 C 7.144531 -47.75 5.472656 -47.097656 4.171875 -45.796875 C 2.878906 -44.503906 2.132812 -42.816406 1.9375 -40.734375 C 1.863281 -40.148438 1.804688 -39.570312 1.765625 -39 C 1.722656 -38.4375 1.691406 -37.722656 1.671875 -36.859375 C 1.660156 -35.992188 1.65625 -34.738281 1.65625 -33.09375 L 1.828125 -10.484375 L 1.765625 -8.890625 C 1.765625 -6.066406 2.253906 -3.789062 3.234375 -2.0625 C 4.210938 -0.332031 6.039062 0.53125 8.71875 0.53125 Z M 8.71875 0.53125 "/></g></g></g><g fill="#ffffff" fill-opacity="1"><g transform="translate(322.203284, 111.462804)"><g><path d="M 12.3125 1.296875 C 14 1.296875 15.976562 1.253906 18.25 1.171875 C 19.894531 1.140625 21.71875 1.113281 23.71875 1.09375 C 25.726562 1.070312 27.46875 0.460938 28.9375 -0.734375 C 30.40625 -1.929688 31.140625 -3.609375 31.140625 -5.765625 C 31.140625 -7.929688 30.578125 -9.738281 29.453125 -11.1875 C 28.335938 -12.632812 26.921875 -13.476562 25.203125 -13.71875 C 21.628906 -13.71875 18.820312 -13.738281 16.78125 -13.78125 C 16.507812 -13.8125 16.34375 -13.945312 16.28125 -14.1875 C 16.21875 -14.425781 16.1875 -14.738281 16.1875 -15.125 C 16.1875 -15.519531 16.222656 -15.796875 16.296875 -15.953125 C 16.378906 -16.109375 16.597656 -16.207031 16.953125 -16.25 C 17.304688 -16.289062 17.894531 -16.332031 18.71875 -16.375 L 21.4375 -16.484375 C 21.945312 -16.484375 22.660156 -16.484375 23.578125 -16.484375 C 24.503906 -16.484375 25.4375 -16.617188 26.375 -16.890625 C 28.5 -17.523438 29.5625 -19.742188 29.5625 -23.546875 C 29.5625 -25.191406 29.242188 -26.410156 28.609375 -27.203125 C 27.554688 -28.453125 25.832031 -29.078125 23.4375 -29.078125 C 20.84375 -29.078125 19.132812 -29.109375 18.3125 -29.171875 C 17.488281 -29.234375 17 -29.359375 16.84375 -29.546875 C 16.6875 -29.742188 16.609375 -30.039062 16.609375 -30.4375 L 16.609375 -30.671875 L 16.546875 -31.609375 C 16.546875 -31.890625 16.722656 -32.066406 17.078125 -32.140625 C 17.859375 -32.140625 19.015625 -32.203125 20.546875 -32.328125 C 22.546875 -32.484375 24.3125 -32.5625 25.84375 -32.5625 C 27.613281 -32.5625 28.929688 -33.007812 29.796875 -33.90625 C 31.128906 -35.320312 31.796875 -37.148438 31.796875 -39.390625 C 31.796875 -41.460938 31.34375 -43.09375 30.4375 -44.28125 C 28.707031 -46.394531 25.960938 -47.453125 22.203125 -47.453125 L 8.0625 -47.453125 C 4.289062 -47.210938 2.210938 -45.660156 1.828125 -42.796875 C 1.742188 -42.171875 1.703125 -40.191406 1.703125 -36.859375 C 1.703125 -35.046875 1.710938 -33.195312 1.734375 -31.3125 C 1.753906 -29.4375 1.773438 -27.847656 1.796875 -26.546875 C 1.816406 -25.253906 1.847656 -24.609375 1.890625 -24.609375 L 1.828125 -12.59375 C 1.828125 -8.550781 2.039062 -5.539062 2.46875 -3.5625 C 2.90625 -1.582031 3.867188 -0.28125 5.359375 0.34375 C 6.847656 0.976562 9.164062 1.296875 12.3125 1.296875 Z M 12.3125 1.296875 "/></g></g></g></svg>