<svg width="13" height="13" viewBox="0 0 13 13" fill="none" xmlns="http://www.w3.org/2000/svg">
<g id="user-search">
<path id="Vector" d="M3.5 11V10C3.5 9.46957 3.71071 8.96086 4.08579 8.58579C4.46086 8.21071 4.96957 8 5.5 8H6M9.75 10.25L11 11.5M8.5 4C8.5 5.10457 7.60457 6 6.5 6C5.39543 6 4.5 5.10457 4.5 4C4.5 2.89543 5.39543 2 6.5 2C7.60457 2 8.5 2.89543 8.5 4ZM10 9.25C10 9.94036 9.44036 10.5 8.75 10.5C8.05964 10.5 7.5 9.94036 7.5 9.25C7.5 8.55964 8.05964 8 8.75 8C9.44036 8 10 8.55964 10 9.25Z" stroke="black" stroke-linecap="round" stroke-linejoin="round"/>
</g>
</svg>
